<svg width="100" height="100" viewBox="0 0 100 100" xmlns="http://www.w3.org/2000/svg">
  <defs>
    <linearGradient id="grad" x1="0%" y1="0%" x2="100%" y2="100%">
      <stop offset="0%" style="stop-color:#7F33B7;stop-opacity:1" />
      <stop offset="100%" style="stop-color:#FF318C;stop-opacity:1" />
    </linearGradient>
  </defs>
  <!-- Background shadow pages -->
  <rect x="25" y="20" width="60" height="75" rx="8" fill="url(#grad)" opacity="0.2" />
  <rect x="18" y="13" width="60" height="75" rx="8" fill="url(#grad)" opacity="0.4" />
  
  <!-- Main template page -->
  <path d="M10 10 H55 L75 30 V80 Q 75 85 70 85 H15 Q 10 85 10 80 V10 Z" fill="url(#grad)" />
  
  <!-- Folded corner -->
  <path d="M55 10 V30 H75 Z" fill="#ffffff" opacity="0.3" />
  
  <!-- Content lines on the page -->
  <rect x="22" y="35" width="30" height="4" rx="2" fill="white" opacity="0.9" />
  <rect x="22" y="48" width="30" height="4" rx="2" fill="white" opacity="0.9" />
  <rect x="22" y="61" width="18" height="4" rx="2" fill="white" opacity="0.9" />
  
  <!-- Action circle (Plus) -->
  <circle cx="75" cy="75" r="20" fill="#30D5C8" />
  <path d="M75 65 V85 M65 75 H85" stroke="white" stroke-width="6" stroke-linecap="round" />
</svg>
